<svg width="131" height="27" viewBox="0 0 131 27" fill="none" xmlns="http://www.w3.org/2000/svg">
<g clip-path="url(#clip0_8_38)">
<path d="M114.268 26.011H113.75L120.003 0.370003H124.295L130.215 26.011H125.96L123.962 17.131H116.451L114.268 26.011ZM116.562 16.65H123.851L120.336 1.073L116.562 16.65Z" fill="white"/>
<path d="M92.3425 26.011V0.370003H100.704C104.774 0.370003 107.808 3.145 107.808 6.993C107.808 10.175 105.699 12.58 102.591 13.246L108.659 26.011H104.404L98.6325 13.468H96.4865V26.011H92.3425ZM98.4475 0.851004H96.4865V12.987H98.4475C101.592 12.987 103.59 10.36 103.59 6.993C103.59 3.589 101.592 0.851004 98.4475 0.851004Z" fill="white"/>
<path d="M72.1821 26.381C64.5231 26.381 58.7881 20.905 58.7881 13.172C58.7881 5.439 64.5231 0 72.1821 0C79.8041 0 85.5391 5.439 85.5391 13.172C85.5391 20.905 79.8041 26.381 72.1821 26.381ZM72.1821 25.9C77.4361 25.9 81.2841 21.275 81.2841 13.172C81.2841 5.624 77.7321 0.480998 72.1821 0.480998C66.8911 0.480998 63.0431 5.106 63.0431 13.172C63.0431 20.72 66.5951 25.9 72.1821 25.9Z" fill="white"/>
<path d="M39.7721 0.370003H44.1751L48.5041 10.804L53.3141 0.370003H53.9061L48.7631 11.433L54.8311 26.011H50.4281L46.0991 15.614L41.3631 26.011H40.7711L45.8401 14.948L39.7721 0.370003Z" fill="white"/>
<path d="M21.288 26.011V0.370003H34.09V0.851004H25.432V12.95H32.943V13.431H25.432V25.53H34.09V26.011H21.288Z" fill="white"/>
<path d="M0 26.011V0.370003H4.255L13.246 24.457V0.370003H13.764V26.011H9.509L0.518 1.998V26.011H0Z" fill="white"/>
</g>
<defs>
<clipPath id="clip0_8_38">
<rect width="130.215" height="26.381" fill="white"/>
</clipPath>
</defs>
</svg>
